<?xml version="1.0" encoding="utf-8"?><!-- Uploaded to: SVG Repo, www.svgrepo.com, Generator: SVG Repo Mixer Tools -->
<svg width="800px" height="800px" viewBox="0 0 24 24" fill="none" xmlns="http://www.w3.org/2000/svg">
<path fill-rule="evenodd" clip-rule="evenodd" d="M18.8286 1.72758C19.618 1.37176 21.0449 0.981099 22.1457 2.08172C23.2466 3.18244 22.8558 4.60949 22.5 5.39885C22.2409 5.97353 21.8851 6.58498 21.4343 7.03586L18.3035 10.1667L20.75 19.9527C21.0686 21.2273 19.4017 22.0136 18.6208 20.957L13.9001 14.5701L11.0678 17.4024L10.4818 21.504C10.326 22.5944 8.90642 22.9164 8.29541 21.9999L5.86325 18.3517L1.89476 15.6042C0.960857 14.9577 1.36456 13.4958 2.49799 13.4203L6.85509 13.1298L9.65741 10.3275L3.27054 5.60674C2.21395 4.82579 3.00021 3.1589 4.27485 3.47756L14.0608 5.92406L17.1916 2.7933C17.6424 2.34244 18.254 1.98663 18.8286 1.72758ZM18.5828 4.23053L15.1548 7.65856C14.8567 7.95662 14.4241 8.07643 14.0152 7.9742L7.70352 6.39628L11.5932 9.27129C12.1832 9.70735 12.2473 10.5661 11.7285 11.0848L8.05676 14.7566C7.85123 14.9621 7.57808 15.086 7.28807 15.1054L4.91621 15.2635L7.31557 16.9246L8.79804 19.1483L9.12556 16.8556C9.16228 16.5986 9.28139 16.3604 9.46498 16.1768L13.1427 12.499C13.6615 11.9803 14.5202 12.0443 14.9562 12.6343L17.8312 16.524L16.2533 10.2123C16.1511 9.80342 16.2709 9.37083 16.569 9.07277L19.997 5.64474C20.0811 5.54456 20.4407 5.10051 20.6767 4.57691C20.9648 3.93787 20.8835 3.64788 20.7316 3.49604C20.5796 3.34411 20.2895 3.26286 19.6505 3.5509C19.127 3.78691 18.683 4.14648 18.5828 4.23053Z" fill="#0F0F0F"/>
</svg>